<?xml version="1.0" encoding="iso-8859-1"?>
<!-- Uploaded to: SVG Repo, www.svgrepo.com, Generator: SVG Repo Mixer Tools -->
<!DOCTYPE svg PUBLIC "-//W3C//DTD SVG 1.1//EN" "http://www.w3.org/Graphics/SVG/1.1/DTD/svg11.dtd">
<svg fill="#000000" height="800px" width="800px" version="1.1" id="Capa_1" xmlns="http://www.w3.org/2000/svg" xmlns:xlink="http://www.w3.org/1999/xlink" 
	 viewBox="0 0 412.388 412.388" xml:space="preserve">
<g>
	<path d="M319.132,76.656c-1.474-5.958-6.474-9.96-12.442-9.96c-2.315,0-4.633,0.635-6.702,1.834L38.435,220.198
		c-5.767,3.343-8.792,10.466-7.193,16.94l14.284,57.798c1.601,6.471,7.597,11.365,14.256,11.638l29.825,1.221
		c0.489,13.891,5.841,27.012,15.356,37.346c10.547,11.455,24.924,18.118,40.482,18.76l73.655,3.041
		c0.816,0.034,1.627,0.05,2.436,0.05c29.552,0,54.405-22.286,57.844-51.428l82.496,3.378c0.194,0.008,0.386,0.012,0.576,0.012
		c4.092,0,7.838-1.788,10.278-4.904c2.449-3.127,3.287-7.215,2.299-11.219L319.132,76.656z M219.926,346.959l-73.656-3.041
		c-10.22-0.422-19.665-4.798-26.594-12.324c-5.894-6.401-9.356-14.431-10.002-22.977l149.64,6.126
		C256.306,333.649,239.518,347.788,219.926,346.959z M64.101,286.734l-12.603-50.992L301.955,90.509l51.422,208.069L64.101,286.734z
		"/>
	<path d="M412.093,315.321L347.262,52.999c-1.325-5.361-6.746-8.637-12.107-7.309c-5.361,1.325-8.634,6.746-7.309,12.107
		l64.831,262.322c1.126,4.556,5.209,7.603,9.7,7.603c0.794,0,1.602-0.095,2.407-0.294
		C410.146,326.103,413.418,320.683,412.093,315.321z"/>
	<path d="M19.71,242.073c-1.325-5.361-6.747-8.635-12.107-7.309c-5.361,1.325-8.634,6.746-7.309,12.107l14.272,57.75
		c1.126,4.556,5.209,7.603,9.7,7.603c0.794,0,1.602-0.095,2.407-0.294c5.361-1.325,8.634-6.746,7.309-12.107L19.71,242.073z"/>
</g>
</svg>